<svg width="16" height="16" viewBox="0 0 16 16" fill="none" xmlns="http://www.w3.org/2000/svg">
<path d="M14.2222 0H1.77778C0.8 0 0 0.8 0 1.77778V14.2222C0 15.2 0.8 16 1.77778 16H14.2222C15.2 16 16 15.2 16 14.2222V1.77778C16 0.8 15.2 0 14.2222 0ZM8.88889 12.4444H4.44444C3.95556 12.4444 3.55556 12.0444 3.55556 11.5556C3.55556 11.0667 3.95556 10.6667 4.44444 10.6667H8.88889C9.37778 10.6667 9.77778 11.0667 9.77778 11.5556C9.77778 12.0444 9.37778 12.4444 8.88889 12.4444ZM11.5556 8.88889H4.44444C3.95556 8.88889 3.55556 8.48889 3.55556 8C3.55556 7.51111 3.95556 7.11111 4.44444 7.11111H11.5556C12.0444 7.11111 12.4444 7.51111 12.4444 8C12.4444 8.48889 12.0444 8.88889 11.5556 8.88889ZM11.5556 5.33333H4.44444C3.95556 5.33333 3.55556 4.93333 3.55556 4.44444C3.55556 3.95556 3.95556 3.55556 4.44444 3.55556H11.5556C12.0444 3.55556 12.4444 3.95556 12.4444 4.44444C12.4444 4.93333 12.0444 5.33333 11.5556 5.33333Z" fill="currentColor"/>
</svg>
