<svg width="21" height="10" viewBox="0 0 21 10" fill="none" xmlns="http://www.w3.org/2000/svg">
<path fill-rule="evenodd" clip-rule="evenodd" d="M10.3004 7.93552H3.02679C2.34034 7.93552 1.7832 7.3792 1.7832 6.69275V3.48496C1.7832 2.79932 2.34034 2.24219 3.02679 2.24219H10.3004C10.9869 2.24219 11.5432 2.79932 11.5432 3.48496V6.69275C11.5432 7.3792 10.9869 7.93552 10.3004 7.93552Z" fill="currentColor"/>
<path opacity="0.5" fill-rule="evenodd" clip-rule="evenodd" d="M17.2354 7.46055C17.2354 8.17222 16.658 8.74969 15.9463 8.74969H2.25788C1.54622 8.74969 0.96875 8.17222 0.96875 7.46055V2.71882C0.96875 2.00715 1.54622 1.42969 2.25788 1.42969H15.9463C16.658 1.42969 17.2354 2.00715 17.2354 2.71882V7.46055ZM16.2155 0.617188H1.99032C0.977717 0.617188 0.15625 1.43865 0.15625 2.45125V7.72979C0.15625 8.74239 0.977717 9.56385 1.99032 9.56385H16.2155C17.2281 9.56385 18.0496 8.74239 18.0496 7.72979V2.45125C18.0496 1.43865 17.2281 0.617188 16.2155 0.617188Z" fill="currentColor"/>
<path opacity="0.5" fill-rule="evenodd" clip-rule="evenodd" d="M18.6602 6.71818V3.46484C19.3336 3.46484 19.8802 4.0114 19.8802 4.68484V5.49818C19.8802 6.17243 19.3336 6.71818 18.6602 6.71818Z" fill="currentColor"/>
</svg>
