<svg width="16" height="16" viewBox="0 0 16 16" fill="none" xmlns="http://www.w3.org/2000/svg">
<g clip-path="url(#clip0_255_134483)">
<path d="M12.6666 14.6668V2.66683C12.6666 2.48683 12.6666 2.30016 12.62 2.1135C12.5775 1.93429 12.4857 1.77058 12.3549 1.64095C12.2241 1.51132 12.0595 1.42097 11.88 1.38016C11.7 1.3335 11.5133 1.3335 11.3333 1.3335H6.66663C6.48663 1.3335 5.63996 1.3335 5.44663 1.38016C5.26742 1.42259 5.10371 1.51443 4.97408 1.64523C4.84445 1.77604 4.7541 1.94058 4.71329 2.12016C4.66663 2.30016 4.66663 2.48683 4.66663 2.66683V4.00024" stroke="currentColor" stroke-width="1.2" stroke-linecap="round" stroke-linejoin="round"/>
<path d="M14.5466 6.04668C14.367 6.00905 14.1834 5.99338 14 6.00002H12.6666V14.6667H14C14.3536 14.6667 14.6927 14.5262 14.9428 14.2762C15.1928 14.0261 15.3333 13.687 15.3333 13.3334V7.33335C15.3333 7.14668 15.3333 6.96668 15.2866 6.78668C15.24 6.60668 15.1533 6.44002 15.02 6.30668C14.8933 6.18002 14.7266 6.09335 14.5466 6.04668Z" stroke="currentColor" stroke-width="1.2" stroke-linecap="round" stroke-linejoin="round"/>
<path d="M7.33337 4H10.6667" stroke="currentColor" stroke-width="0.8" stroke-linecap="round" stroke-linejoin="round"/>
<path d="M8.5 6.6665H10.6666" stroke="currentColor" stroke-width="0.8" stroke-linecap="round" stroke-linejoin="round"/>
<path d="M10 9.3335H10.6667" stroke="currentColor" stroke-width="0.8" stroke-linecap="round" stroke-linejoin="round"/>
<path d="M10 12H10.6667" stroke="currentColor" stroke-width="0.8" stroke-linecap="round" stroke-linejoin="round"/>
<g clip-path="url(#clip1_255_134483)">
<path d="M0.5 8.73579L4.87501 5.33301L9.25001 8.73579V14.083C9.25001 14.3409 9.14758 14.5882 8.96525 14.7705C8.78293 14.9528 8.53564 15.0552 8.27779 15.0552H1.47222C1.21437 15.0552 0.967085 14.9528 0.784758 14.7705C0.60243 14.5882 0.5 14.3409 0.5 14.083V8.73579Z" stroke="currentColor" stroke-width="1.2" stroke-linecap="round" stroke-linejoin="round"/>
<path d="M3.58337 15.0552V10.333H6.41671V15.0552" stroke="currentColor" stroke-width="1.2" stroke-linecap="round" stroke-linejoin="round"/>
</g>
</g>
<defs>
<clipPath id="clip0_255_134483">
<rect width="16" height="16" fill="white"/>
</clipPath>
<clipPath id="clip1_255_134483">
<rect width="11.3333" height="11.3333" fill="white" transform="translate(-1.33337 4.6665)"/>
</clipPath>
</defs>
</svg>
