<svg width="21" height="21" viewBox="0 0 21 21" fill="none" xmlns="http://www.w3.org/2000/svg">
<g clip-path="url(#clip0_367_185850)">
<path d="M14.4392 6.96484L10.3391 18.7828L20.4191 6.96484H14.4392Z" fill="#FFDF79"/>
<path d="M4.43129 1.75L0.260254 6.9638H6.24017L4.43129 1.75Z" fill="#FFC55B"/>
<path d="M14.4409 6.9638H20.4208L16.2498 1.75L14.4409 6.9638Z" fill="#FFC55E"/>
<path d="M14.4397 6.9638L10.3396 1.75L6.2395 6.9638H14.4397Z" fill="#FFC357"/>
<path d="M10.3401 1.75H4.43115L6.24004 6.9638L10.3401 1.75Z" fill="#FF9D4C"/>
<path d="M16.2481 1.75H10.3391L14.4392 6.9638L16.2481 1.75Z" fill="#FFDA64"/>
<path d="M6.23926 6.96484L10.3393 18.7828L14.4394 6.96484H6.23926Z" fill="#FFA153"/>
<path d="M0.26001 6.96484L10.34 18.7828L6.23993 6.96484H0.26001Z" fill="#FF814A"/>
</g>
<defs>
<clipPath id="clip0_367_185850">
<rect width="20.16" height="20.16" fill="white" transform="translate(0.259277 0.179688)"/>
</clipPath>
</defs>
</svg>
