<svg width="217" height="166" viewBox="0 0 217 166" fill="none" xmlns="http://www.w3.org/2000/svg">
<path d="M216.17 161.011C207.537 165.266 3.78775 168.67 0.910327 161.011C-7.20961 158.821 40.0482 132.077 100.482 135.481C160.917 138.885 224.804 156.756 216.17 161.011Z" fill="#8ECE4E"/>
<g style="mix-blend-mode:multiply">
<path d="M38.4711 152.329C34.375 152.691 28.9116 152.832 25.4947 152.506C18.3162 151.287 33.6753 149.729 38.1174 150.163C42.5595 150.598 42.5672 151.966 38.4711 152.329Z" fill="#586E5D" fill-opacity="0.15"/>
</g>
<g style="mix-blend-mode:multiply">
<path d="M61.541 157.558C59.5786 157.952 56.9598 158.092 55.3205 157.717C51.8745 156.326 59.2325 154.626 61.3637 155.128C63.4949 155.629 63.5035 157.165 61.541 157.558Z" fill="#586E5D" fill-opacity="0.15"/>
</g>
<g style="mix-blend-mode:multiply">
<path d="M90.185 161.983C89.2561 162.157 88.0167 162.22 87.2409 162.054C85.6103 161.438 89.0929 160.684 90.1014 160.906C91.11 161.128 91.1138 161.808 90.185 161.983Z" fill="#586E5D" fill-opacity="0.15"/>
</g>
<g style="mix-blend-mode:multiply">
<path d="M186.188 159.081C185.529 159.319 184.648 159.402 184.096 159.169C182.935 158.311 185.407 157.278 186.125 157.589C186.842 157.899 186.848 158.842 186.188 159.081Z" fill="#586E5D" fill-opacity="0.15"/>
</g>
<g style="mix-blend-mode:multiply">
<path d="M79.2223 140.459C77.5049 140.703 75.2136 140.793 73.7799 140.564C70.7672 139.715 77.2069 138.663 79.0707 138.967C80.9345 139.272 80.9398 140.215 79.2223 140.459Z" fill="#586E5D" fill-opacity="0.15"/>
</g>
<path d="M24.7645 152.018C27.4097 152.331 27.9061 150.941 27.8236 150.208C28.0205 151.101 28.1664 152.911 30.7692 152.655C32.6532 152.47 32.7868 151.102 32.6181 150.441C33.1662 150.928 34.5547 151.525 35.7234 150.015C36.8921 148.505 36.2306 147.544 35.7538 147.252C36.0747 146.653 36.3567 145.276 34.9172 144.561C33.4778 143.846 32.0705 144.769 31.5468 145.319C31.7901 144.64 31.764 143.187 29.714 142.811C27.664 142.435 27.1227 144.336 27.1084 145.334C26.9482 144.52 26.1246 143.074 24.1116 143.806C22.0986 144.538 22.3468 145.986 22.7226 146.619C21.754 146.303 19.9595 146.208 20.5304 148.356C21.1013 150.503 22.7874 149.886 23.5591 149.309C22.8588 150.082 22.1193 151.705 24.7645 152.018Z" fill="#FFC700"/>
<path d="M28.0158 148.95C30.7076 149.311 31.1211 148.524 31.1467 148.065C31.185 147.375 30.524 145.961 28.6672 146.101C26.8104 146.241 25.324 148.589 28.0158 148.95Z" fill="#FFF1E3"/>
<g style="mix-blend-mode:multiply" opacity="0.3">
<path d="M189.591 154.329C186.294 154.843 177.501 154.843 172.006 154.329C167.61 153.815 178.6 149.707 181.348 149.193C184.095 148.679 192.888 150.22 192.888 151.247C192.888 152.275 192.888 153.815 189.591 154.329Z" fill="#46853E"/>
</g>
<rect width="4.50152" height="17.4574" rx="2.25076" transform="matrix(0.0107495 -0.999942 0.999956 0.00938989 168.161 154.444)" fill="#46853E"/>
<rect width="4.63794" height="9.75012" rx="2.31897" transform="matrix(0.922447 -0.386125 0.432148 0.901803 170.54 145.295)" fill="#46853E"/>
<rect width="4.87218" height="10.5084" rx="2.43609" transform="matrix(0.965834 0.25916 -0.293642 0.955915 178.857 142.003)" fill="#46853E"/>
<path d="M150.118 42.9134C150.118 41.1749 151.527 39.7656 153.266 39.7656H184.358C186.671 39.7656 188.194 42.1765 187.201 44.2652L177.377 64.9241C176.97 65.7794 176.97 66.7725 177.377 67.6278L187.201 88.2867C188.194 90.3754 186.671 92.7863 184.358 92.7863H150.118V42.9134Z" fill="currentColor"/>
<path d="M150.118 82.0259H159.27L168.422 74.8525C168.422 79.2968 166.069 83.409 162.238 85.6612L150.118 92.786V82.0259Z" fill="currentColor"/>
<path d="M123.807 14.8147C115.295 14.8147 108.561 17.329 104.632 19.5047C102.713 20.5674 101.744 22.6765 101.744 24.8703V84.9891C104.41 82.7921 112.555 78.3981 123.807 78.3981C136.927 78.3981 148.607 88.181 164.891 80.3706C167.187 79.2695 168.485 76.8481 168.485 74.302V27.9845C168.485 22.233 161.953 18.6363 156.265 19.4923C144.224 21.3047 134.493 14.8147 123.807 14.8147Z" fill="currentColor"/>
<g filter="url(#filter0_i_19005_10235)">
<path fill-rule="evenodd" clip-rule="evenodd" d="M126.77 147.366H76.7146V151.265H76.7715C76.7694 151.282 76.7683 151.299 76.7683 151.316C76.7683 153.067 87.9737 154.486 101.796 154.486C115.619 154.486 126.824 153.067 126.824 151.316C126.824 151.246 126.806 151.176 126.77 151.107V147.366Z" fill="#B58F5D"/>
</g>
<g filter="url(#filter1_i_19005_10235)">
<path d="M126.77 147.756C126.77 149.694 115.565 151.265 101.742 151.265C87.92 151.265 76.7146 149.694 76.7146 147.756C76.7146 145.818 87.92 144.247 101.742 144.247C115.565 144.247 126.77 145.818 126.77 147.756Z" fill="#DEB785"/>
</g>
<path d="M96.7373 1.55933H104.246V147.366C101.313 147.823 99.6695 147.865 96.7373 147.366V1.55933Z" fill="#F5E4CD"/>
<rect x="94.2341" width="12.5139" height="14.8146" rx="2.09849" fill="#DBD7D7"/>
<defs>
<filter id="filter0_i_19005_10235" x="76.7146" y="147.366" width="50.1095" height="7.12036" filterUnits="userSpaceOnUse" color-interpolation-filters="sRGB">
<feFlood flood-opacity="0" result="BackgroundImageFix"/>
<feBlend mode="normal" in="SourceGraphic" in2="BackgroundImageFix" result="shape"/>
<feColorMatrix in="SourceAlpha" type="matrix" values="0 0 0 0 0 0 0 0 0 0 0 0 0 0 0 0 0 0 127 0" result="hardAlpha"/>
<feOffset/>
<feGaussianBlur stdDeviation="0.53675"/>
<feComposite in2="hardAlpha" operator="arithmetic" k2="-1" k3="1"/>
<feColorMatrix type="matrix" values="0 0 0 0 0.97691 0 0 0 0 0.851632 0 0 0 0 0.706424 0 0 0 1 0"/>
<feBlend mode="normal" in2="shape" result="effect1_innerShadow_19005_10235"/>
</filter>
<filter id="filter1_i_19005_10235" x="76.7146" y="144.247" width="50.0558" height="7.01733" filterUnits="userSpaceOnUse" color-interpolation-filters="sRGB">
<feFlood flood-opacity="0" result="BackgroundImageFix"/>
<feBlend mode="normal" in="SourceGraphic" in2="BackgroundImageFix" result="shape"/>
<feColorMatrix in="SourceAlpha" type="matrix" values="0 0 0 0 0 0 0 0 0 0 0 0 0 0 0 0 0 0 127 0" result="hardAlpha"/>
<feOffset/>
<feGaussianBlur stdDeviation="0.53675"/>
<feComposite in2="hardAlpha" operator="arithmetic" k2="-1" k3="1"/>
<feColorMatrix type="matrix" values="0 0 0 0 0.97691 0 0 0 0 0.851632 0 0 0 0 0.706424 0 0 0 1 0"/>
<feBlend mode="normal" in2="shape" result="effect1_innerShadow_19005_10235"/>
</filter>
</defs>
</svg>
