<svg width="13" height="12" viewBox="0 0 13 12" fill="none" xmlns="http://www.w3.org/2000/svg">
<path fill-rule="evenodd" clip-rule="evenodd" d="M6.1505 0.703125C3.22435 0.703125 0.85223 3.07524 0.85223 6.00139C0.85223 8.92753 3.22435 11.2997 6.1505 11.2997C9.07665 11.2997 11.4487 8.92753 11.4487 6.00139C11.4487 3.07524 9.07665 0.703125 6.1505 0.703125ZM1.61223 6.00139C1.61223 3.49498 3.64408 1.46312 6.1505 1.46312C8.65689 1.46312 10.6887 3.49498 10.6887 6.00139C10.6887 8.50777 8.65689 10.5397 6.1505 10.5397C3.64408 10.5397 1.61223 8.50777 1.61223 6.00139ZM6.75051 3.6016C6.75051 3.93297 6.48187 4.2016 6.15051 4.2016C5.81914 4.2016 5.55051 3.93297 5.55051 3.6016C5.55051 3.27023 5.81914 3.0016 6.15051 3.0016C6.48187 3.0016 6.75051 3.27023 6.75051 3.6016ZM4.95059 4.8016H5.35059H6.15059C6.37151 4.8016 6.55059 4.98068 6.55059 5.2016V8.0016H6.95059H7.35059V8.80161H6.95059H6.15059H5.35059H4.95059V8.0016H5.35059H5.75059V5.6016H5.35059H4.95059V4.8016Z" fill="currentColor"/>
</svg>
