<svg width="11" height="15" viewBox="0 0 11 15" fill="none" xmlns="http://www.w3.org/2000/svg">
<path d="M9.3615 6.02047H8.9415V4.34047C8.9415 2.48743 7.43454 0.980469 5.5815 0.980469C3.72846 0.980469 2.2215 2.48743 2.2215 4.34047V6.02047H1.8015C1.1071 6.02047 0.541504 6.58551 0.541504 7.28047V13.1605C0.541504 13.8554 1.1071 14.4205 1.8015 14.4205H9.3615C10.0559 14.4205 10.6215 13.8554 10.6215 13.1605V7.28047C10.6215 6.58551 10.0559 6.02047 9.3615 6.02047ZM3.3415 4.34047C3.3415 3.10511 4.34614 2.10047 5.5815 2.10047C6.81686 2.10047 7.8215 3.10511 7.8215 4.34047V6.02047H3.3415V4.34047ZM6.1415 10.3448V11.6205C6.1415 11.9296 5.89118 12.1805 5.5815 12.1805C5.27182 12.1805 5.0215 11.9296 5.0215 11.6205V10.3448C4.6883 10.1505 4.4615 9.79319 4.4615 9.38047C4.4615 8.76279 4.96382 8.26047 5.5815 8.26047C6.19918 8.26047 6.7015 8.76279 6.7015 9.38047C6.7015 9.79319 6.4747 10.1505 6.1415 10.3448Z" fill="#858585"/>
</svg>
