<svg width="33" height="33" viewBox="0 0 33 33" fill="none" xmlns="http://www.w3.org/2000/svg">
<path opacity="0.4" d="M15.1226 9.87053C15.641 7.9359 15.9002 6.96858 16.6623 6.52861C17.4243 6.08863 18.3916 6.34783 20.3263 6.86621L25.7788 8.32721C27.7134 8.8456 28.6808 9.10479 29.1207 9.86684C29.5607 10.6289 29.3015 11.5962 28.7831 13.5309L25.9619 24.0599C25.4435 25.9945 25.1843 26.9618 24.4223 27.4018C23.6602 27.8418 22.6929 27.5826 20.7582 27.0642L15.3057 25.6032C13.3711 25.0848 12.4038 24.8256 11.9638 24.0635C11.5238 23.3015 11.783 22.3342 12.3014 20.3995L15.1226 9.87053Z" fill="white"/>
<path fill-rule="evenodd" clip-rule="evenodd" d="M5.77983 4.60485L15.986 3.88874C16.6893 3.83939 17.3848 4.06052 17.9305 4.50692L23.9582 9.43836C24.5478 9.92073 24.9122 10.625 24.9656 11.3849L25.9948 26.0543C26.075 27.1968 25.2138 28.188 24.0713 28.2681L7.52162 29.4293C6.37911 29.5095 5.38793 28.6483 5.30777 27.5058L3.85627 6.81871C3.77611 5.67619 4.63731 4.68501 5.77983 4.60485ZM12.4061 11.7582C12.7721 12.1396 12.7596 12.7455 12.3782 13.1115L9.99317 15.4002C9.7972 15.5882 9.53057 15.6842 9.25972 15.6641C8.98887 15.644 8.73929 15.5098 8.57319 15.2949L7.63996 14.0876C7.31667 13.6694 7.39364 13.0683 7.81186 12.745C8.23009 12.4217 8.83121 12.4987 9.1545 12.9169L9.4363 13.2815L11.0528 11.7303C11.4342 11.3643 12.0401 11.3768 12.4061 11.7582ZM15.1451 12.9171C14.6178 12.9541 14.2203 13.4116 14.2573 13.9389C14.2943 14.4662 14.7518 14.8637 15.2791 14.8267L21.1897 14.412C21.717 14.375 22.1145 13.9175 22.0775 13.3902C22.0405 12.8629 21.583 12.4654 21.0557 12.5024L15.1451 12.9171ZM12.9842 19.9666C12.9472 19.4393 13.3447 18.9818 13.872 18.9448L21.4713 18.4116C21.9986 18.3746 22.4561 18.7721 22.4931 19.2994C22.5301 19.8267 22.1326 20.2842 21.6053 20.3212L14.006 20.8544C13.4787 20.8914 13.0212 20.4939 12.9842 19.9666ZM9.60858 19.2462C9.1036 19.2817 8.72422 19.7379 8.76122 20.2652C8.79821 20.7925 9.23758 21.1912 9.74256 21.1558L9.82343 21.1501C10.3284 21.1147 10.7078 20.6585 10.6708 20.1312C10.6338 19.6039 10.1944 19.2051 9.68944 19.2406L9.60858 19.2462Z" fill="white"/>
</svg>
