<svg width="16" height="16" viewBox="0 0 16 16" fill="none" xmlns="http://www.w3.org/2000/svg">
<path fill-rule="evenodd" clip-rule="evenodd" d="M5.86641 3.19948C4.98275 3.19948 4.26641 3.91582 4.26641 4.79948C4.26641 5.68314 4.98275 6.39948 5.86641 6.39948C6.75007 6.39948 7.46641 5.68314 7.46641 4.79948C7.46641 3.91582 6.75007 3.19948 5.86641 3.19948ZM3.19974 5.33281C3.21756 5.33281 3.23519 5.33194 3.25256 5.33023C3.49864 6.54871 4.57539 7.46615 5.86641 7.46615C7.15743 7.46615 8.23417 6.54871 8.48025 5.33023C8.49763 5.33194 8.51525 5.33281 8.53307 5.33281H14.3997C14.6942 5.33281 14.9331 5.09403 14.9331 4.79948C14.9331 4.50493 14.6942 4.26615 14.3997 4.26615H8.53307C8.51525 4.26615 8.49763 4.26702 8.48025 4.26873C8.23417 3.05024 7.15743 2.13281 5.86641 2.13281C4.57539 2.13281 3.49864 3.05024 3.25256 4.26873C3.23519 4.26702 3.21756 4.26615 3.19974 4.26615H1.59974C1.30519 4.26615 1.06641 4.50493 1.06641 4.79948C1.06641 5.09403 1.30519 5.33281 1.59974 5.33281H3.19974ZM12.7469 11.7303C12.5009 12.9487 11.4241 13.8661 10.1331 13.8661C8.84205 13.8661 7.76531 12.9487 7.51923 11.7303C7.50185 11.732 7.48423 11.7328 7.46641 11.7328H1.59974C1.30519 11.7328 1.06641 11.494 1.06641 11.1995C1.06641 10.905 1.30519 10.6661 1.59974 10.6661H7.46641C7.48423 10.6661 7.50185 10.667 7.51923 10.6687C7.76531 9.45025 8.84205 8.53281 10.1331 8.53281C11.4241 8.53281 12.5009 9.45025 12.7469 10.6687C12.7643 10.667 12.7819 10.6661 12.7997 10.6661H14.3997C14.6942 10.6661 14.9331 10.905 14.9331 11.1995C14.9331 11.494 14.6942 11.7328 14.3997 11.7328H12.7997C12.7819 11.7328 12.7643 11.732 12.7469 11.7303ZM8.53307 11.1995C8.53307 10.3158 9.24941 9.59948 10.1331 9.59948C11.0167 9.59948 11.7331 10.3158 11.7331 11.1995C11.7331 12.0831 11.0167 12.7995 10.1331 12.7995C9.24941 12.7995 8.53307 12.0831 8.53307 11.1995Z" fill="currentColor"/>
</svg>
