<svg width="354" height="717" viewBox="0 0 354 717" fill="none" xmlns="http://www.w3.org/2000/svg">
<path fill-rule="evenodd" clip-rule="evenodd" d="M9.51026 31.5571C3.21088 43.9203 3.21088 60.1047 3.21088 92.4735V127.633H1.60544C0.718781 127.633 0 128.351 0 129.238V151.714C0 152.601 0.718781 153.32 1.60544 153.32H3.21088V174.19H1.60544C0.718781 174.19 0 174.909 0 175.796V222.354C0 223.24 0.718781 223.959 1.60544 223.959H3.21088V239.211H1.60544C0.718781 239.211 0 239.93 0 240.816V287.374C0 288.261 0.718781 288.98 1.60544 288.98H3.21088V623.554C3.21088 655.922 3.21088 672.107 9.51026 684.47C15.0514 695.345 23.893 704.187 34.768 709.728C47.1312 716.027 63.3156 716.027 95.6844 716.027H258.316C290.684 716.027 306.869 716.027 319.232 709.728C330.107 704.187 338.949 695.345 344.49 684.47C350.789 672.107 350.789 655.922 350.789 623.554V288.177H352.395C353.281 288.177 354 287.458 354 286.571V211.116C354 210.229 353.281 209.51 352.395 209.51H350.789V92.4735C350.789 60.1047 350.789 43.9203 344.49 31.5571C338.949 20.6821 330.107 11.8405 319.232 6.29938C306.869 0 290.684 0 258.316 0H95.6844C63.3156 0 47.1312 0 34.768 6.29938C23.893 11.8405 15.0514 20.6821 9.51026 31.5571ZM23.8149 38.8457C19.2653 47.7747 19.2653 59.4634 19.2653 82.8408V633.186C19.2653 656.564 19.2653 668.253 23.8149 677.182C27.8168 685.036 34.2024 691.421 42.0566 695.423C50.9856 699.973 62.6743 699.973 86.0517 699.973H267.948C291.326 699.973 303.014 699.973 311.943 695.423C319.798 691.421 326.183 685.036 330.185 677.182C334.735 668.253 334.735 656.564 334.735 633.186V82.8408C334.735 59.4634 334.735 47.7747 330.185 38.8457C326.183 30.9915 319.798 24.6059 311.943 20.604C303.014 16.0544 291.326 16.0544 267.948 16.0544H86.0517C62.6743 16.0544 50.9856 16.0544 42.0566 20.604C34.2024 24.6059 27.8168 30.9915 23.8149 38.8457Z" fill="currentColor"/>
<path d="M129.238 38.531C129.238 30.5511 135.707 24.082 143.687 24.082H207.102C215.082 24.082 221.551 30.5511 221.551 38.531C221.551 46.511 215.082 52.98 207.102 52.98H143.687C135.707 52.98 129.238 46.511 129.238 38.531Z" fill="currentColor"/>
<path d="M212.721 37.7265C212.721 40.3865 210.564 42.5428 207.904 42.5428C205.244 42.5428 203.088 40.3865 203.088 37.7265C203.088 35.0665 205.244 32.9102 207.904 32.9102C210.564 32.9102 212.721 35.0665 212.721 37.7265Z" fill="#88888833"/>
</svg>
