<svg width="15" height="10" viewBox="0 0 15 10" fill="none" xmlns="http://www.w3.org/2000/svg">
<path opacity="0.5" fill-rule="evenodd" clip-rule="evenodd" d="M12.7345 0.949219H13.4819C13.9976 0.949219 14.4156 1.36809 14.4156 1.88374V8.61001C14.4156 9.12566 13.9976 9.54453 13.4819 9.54453H12.7345C12.218 9.54453 11.8008 9.12566 11.8008 8.61001V1.88374C11.8008 1.36809 12.218 0.949219 12.7345 0.949219Z" fill="currentColor"/>
<path fill-rule="evenodd" clip-rule="evenodd" d="M8.99816 2.81641H9.74561C10.2621 2.81641 10.6793 3.23446 10.6793 3.75093V8.60897C10.6793 9.12462 10.2621 9.54349 9.74561 9.54349H8.99816C8.48169 9.54349 8.06445 9.12462 8.06445 8.60897V3.75093C8.06445 3.23446 8.48169 2.81641 8.99816 2.81641Z" fill="currentColor"/>
<path fill-rule="evenodd" clip-rule="evenodd" d="M5.25988 4.6875H6.00733C6.5238 4.6875 6.94104 5.10555 6.94104 5.62121V8.61102C6.94104 9.12667 6.5238 9.54554 6.00733 9.54554H5.25988C4.74341 9.54554 4.32617 9.12667 4.32617 8.61102V5.62121C4.32617 5.10555 4.74341 4.6875 5.25988 4.6875Z" fill="currentColor"/>
<path fill-rule="evenodd" clip-rule="evenodd" d="M1.52355 5.80859H2.271C2.78747 5.80859 3.20471 6.22665 3.20471 6.7423V8.61134C3.20471 9.12699 2.78747 9.54586 2.271 9.54586H1.52355C1.0079 9.54586 0.589844 9.12699 0.589844 8.61134V6.7423C0.589844 6.22665 1.0079 5.80859 1.52355 5.80859Z" fill="currentColor"/>
</svg>
