<svg width="16" height="16" viewBox="0 0 16 16" fill="none" xmlns="http://www.w3.org/2000/svg">
<g clip-path="url(#clip0_515_252055)">
<path fill-rule="evenodd" clip-rule="evenodd" d="M15.294 10.9523V5.04767H0.705811V10.9523H15.294Z" fill="black"/>
<path fill-rule="evenodd" clip-rule="evenodd" d="M2.13236 5.6173H3.71803L4.69203 8.91315H4.70548L5.37268 5.6173H6.57121L5.56409 10.3702H3.98373L2.99006 7.08145H2.97662L2.31572 10.3702H1.11719L2.13236 5.6173ZM7.0407 5.6173H8.31335L7.93958 7.43564H9.44382L9.81868 5.6173H11.0913L10.1041 10.3702H8.8314L9.2534 8.33451H7.74816L7.32607 10.3702H6.05325L7.0407 5.6173ZM14.441 6.69331C14.1959 6.57793 13.8622 6.476 13.3927 6.476C12.8892 6.476 12.4804 6.55029 12.4804 6.93212C12.4804 7.60555 14.3256 7.35421 14.3256 8.79786C14.3256 10.1117 13.1064 10.4523 12.0037 10.4523C11.5136 10.4523 10.9482 10.3361 10.5334 10.2064L10.8329 9.2397C11.0842 9.40347 11.5886 9.51238 12.0037 9.51238C12.3991 9.51238 13.0179 9.43734 13.0179 8.94719C13.0179 8.18427 11.1728 8.4704 11.1728 7.12976C11.1728 5.90359 12.2488 5.53595 13.2908 5.53595C13.8765 5.53595 14.4275 5.59762 14.7478 5.74695L14.441 6.69331Z" fill="white"/>
</g>
<defs>
<clipPath id="clip0_515_252055">
<rect width="16" height="16" fill="white"/>
</clipPath>
</defs>
</svg>
