<svg width="16" height="16" viewBox="0 0 16 16" fill="none" xmlns="http://www.w3.org/2000/svg">
<path d="M6.1825 5.17L1.7125 0.7C1.3225 0.31 0.6925 0.31 0.3025 0.7C-0.0874998 1.09 -0.0874998 1.72 0.3025 2.11L4.7625 6.57L6.1825 5.17ZM10.9425 0.85L12.1325 2.04L0.2925 13.88C-0.0975 14.27 -0.0975 14.9 0.2925 15.29C0.6825 15.68 1.3125 15.68 1.7025 15.29L13.5525 3.46L14.7425 4.65C15.0525 4.96 15.5925 4.74 15.5925 4.29V0.5C15.5925 0.22 15.3725 0 15.0925 0H11.3025C10.8525 0 10.6325 0.54 10.9425 0.85ZM10.4225 9.41L9.0125 10.82L12.1425 13.95L10.9425 15.15C10.6325 15.46 10.8525 16 11.3025 16H15.0925C15.3725 16 15.5925 15.78 15.5925 15.5V11.71C15.5925 11.26 15.0525 11.04 14.7425 11.36L13.5525 12.55L10.4225 9.41Z" fill="currentColor"/>
</svg>
