<svg width="205" height="200" viewBox="0 0 205 200" fill="none" xmlns="http://www.w3.org/2000/svg">
<path d="M151.378 71.718C152.885 67.9449 151.855 63.3868 148.427 60.7128C146.044 63.8248 141.967 64.3215 140.665 61.5527C139.295 58.6455 143.25 56.0877 148.199 59.3969C151.582 53.8556 148.348 45.0513 141.342 41.9217C139.563 45.9374 135.696 48.6019 131.796 48.4644C129.474 48.4017 126.951 46.9029 126.93 44.5925C126.909 42.4158 129.031 40.9881 131.024 40.3784C134.22 39.3901 137.683 39.5048 140.831 40.7023C143.801 32.4395 135.404 20.9546 123.001 20.5472C113.367 20.1731 105.424 26.9707 104.788 32.5462C104.719 33.1487 103.791 33.0588 103.861 32.4406C104.548 26.4609 112.846 19.2165 123.034 19.6154C136.06 20.0449 144.944 32.1377 141.693 41.0581C149.216 44.3889 152.725 53.875 148.956 59.9438C152.752 62.8721 153.904 67.9108 152.242 72.0638C152.013 72.6358 151.148 72.29 151.378 71.718ZM143.701 58.7763C142.674 58.7763 141.725 59.1294 141.419 59.9575C141.083 60.8652 141.814 61.9586 142.738 62.2825C144.455 62.8889 146.509 61.6695 147.672 60.1668C146.584 59.4386 145.02 58.7763 143.701 58.7763ZM131.299 41.2692C129.702 41.7579 127.846 42.9181 127.862 44.5834C127.877 46.2841 129.924 47.4817 131.826 47.5326C135.348 47.68 138.85 45.2286 140.481 41.5659C137.434 40.4122 134.188 40.3718 131.299 41.2692Z" fill="currentColor"/>
<path d="M180.99 161.391C99.8386 161.102 101.697 161.96 99.8227 160.796C99.6326 160.682 84.4711 151.585 85.4277 152.159C84.8948 151.841 85.3838 151.044 85.9064 151.36C100.503 159.864 100.141 160.459 102.196 160.459H180.99C183.241 160.459 185.073 158.627 185.073 156.376V82.8021C185.073 80.9615 183.859 79.4054 182.246 78.9074L169.084 70.905C168.553 70.5828 169.049 69.7871 169.568 70.1097L182.625 78.0647C184.348 78.5565 186.005 80.4398 186.005 82.8021V156.376C186.005 159.141 183.755 161.391 180.99 161.391Z" fill="currentColor"/>
<path d="M171.658 74.4809V148.057C171.658 150.573 169.608 152.623 167.092 152.623H88.3158C85.8 152.623 83.7686 150.573 83.7686 148.057V119.581H93.534V139.876C93.534 141.833 95.1181 143.417 97.0749 143.417H158.333C160.289 143.417 161.874 141.833 161.874 139.876V82.6623C161.874 80.7055 160.289 79.1213 158.333 79.1213H115.059V69.9336H167.092C169.608 69.9336 171.658 71.965 171.658 74.4809Z" fill="#245fb2"/>
<path d="M101.198 133.566C98.3956 132.619 97.307 126.824 100.397 123.518C104.784 118.811 108.306 130.033 104.288 133.067C103.428 133.715 102.247 133.921 101.198 133.566ZM101.077 124.153C98.4228 126.997 99.3965 131.974 101.497 132.684C102.999 133.191 104.698 132.295 105.039 129.585C105.45 126.322 103.614 121.439 101.077 124.153Z" fill="currentColor"/>
<path d="M111.595 133.186C111.58 133.186 111.564 133.185 111.548 133.183C110.46 133.075 111.975 131.258 110.95 124.096C110.862 123.482 111.785 123.363 111.873 123.964C112.289 126.874 112.352 129.836 112.058 132.766C112.034 133.007 111.831 133.186 111.595 133.186Z" fill="currentColor"/>
<path d="M117.13 133.351L117.626 124.371C117.661 123.752 118.591 123.809 118.556 124.422L118.06 133.402C118.026 134.022 117.095 133.968 117.13 133.351Z" fill="currentColor"/>
<path d="M125.561 132.049C125.339 131.47 126.214 131.145 126.431 131.716C126.746 132.541 128.085 132.572 128.798 131.377C130.451 128.6 128.239 119.65 125.088 123.851C123.423 126.072 123.404 129.432 125.046 131.67C125.411 132.168 124.659 132.717 124.294 132.221C119.996 126.363 126.498 117.808 129.304 123.934C130.748 127.1 130.931 132.742 127.699 133.216C126.779 133.351 125.864 132.843 125.561 132.049Z" fill="currentColor"/>
<path d="M136.328 134.637C136.317 134.637 136.307 134.637 136.296 134.636C135.235 134.565 136.525 133.04 135.885 122.687C135.848 122.07 136.776 122.014 136.815 122.629C137.052 126.467 137.045 130.36 136.792 134.202C136.775 134.448 136.57 134.637 136.328 134.637Z" fill="currentColor"/>
<path d="M145.15 133.49C144.584 133.246 144.953 132.388 145.519 132.634C146.189 132.926 147.08 132.701 147.688 132.097C148.96 130.834 149.366 127.479 147.586 124.821C146.922 123.827 146.289 123.757 145.525 124.87C144.291 126.648 143.928 129.035 144.576 131.101C144.758 131.688 143.873 131.97 143.686 131.38C142.954 129.046 143.366 126.348 144.759 124.338C147.924 119.77 151.837 129.293 148.345 132.757C147.441 133.654 146.12 133.91 145.15 133.49Z" fill="currentColor"/>
<path d="M148.096 107.305C149.156 104.912 151.142 104.246 152.924 106.152C156.038 109.488 154.89 115.265 152.122 116.201C148.133 117.548 145.991 112.054 148.096 107.305ZM150.811 105.98C149.994 105.98 149.315 106.852 148.948 107.682C147.175 111.679 148.751 116.355 151.823 115.318C153.925 114.607 154.897 109.632 152.244 106.789C151.761 106.273 151.298 106.002 150.864 105.981C150.847 105.981 150.829 105.98 150.811 105.98Z" fill="currentColor"/>
<path d="M141.263 115.402C140.969 112.474 141.032 109.513 141.448 106.6C141.535 105.989 142.458 106.121 142.37 106.731C141.965 109.571 141.904 112.456 142.189 115.309C142.252 115.92 141.324 116.024 141.263 115.402Z" fill="currentColor"/>
<path d="M135.262 116.036L134.766 107.056C134.73 106.435 135.664 106.403 135.696 107.005L136.192 115.985C136.227 116.603 135.296 116.656 135.262 116.036Z" fill="currentColor"/>
<path d="M123.723 114.489C122.155 111.865 123.357 104.868 126.281 104.477C129.178 104.054 132.341 110.339 129.026 114.856C128.661 115.355 127.91 114.801 128.274 114.304C129.916 112.067 129.898 108.707 128.232 106.487C124.596 101.623 122.083 114.39 125.757 114.928C126.227 115.005 126.741 114.74 126.889 114.352C127.108 113.779 127.98 114.108 127.759 114.685C127.178 116.207 124.857 116.394 123.723 114.489Z" fill="currentColor"/>
<path d="M116.53 116.838C116.277 113.004 116.269 109.109 116.506 105.264C116.547 104.626 117.472 104.72 117.436 105.322C117.202 109.128 117.21 112.981 117.46 116.776C117.501 117.393 116.571 117.458 116.53 116.838Z" fill="currentColor"/>
<path d="M149.033 98.3331C145.082 95.3522 148.467 84.0163 152.925 88.7847C156.038 92.1212 154.89 97.8978 152.122 98.8336C151.076 99.1872 149.893 98.9842 149.033 98.3331ZM150.812 88.6127C148.461 88.6127 147.014 95.6442 149.594 97.5897C150.214 98.0583 151.089 98.1976 151.824 97.9509C153.925 97.2399 154.898 92.2651 152.244 89.4217C151.762 88.9058 151.299 88.6346 150.865 88.6137C150.847 88.6137 150.829 88.6127 150.812 88.6127Z" fill="currentColor"/>
<path d="M141.263 98.0367C140.969 95.1102 141.032 92.1483 141.448 89.2336C141.534 88.6297 142.458 88.7517 142.37 89.3646C141.965 92.2056 141.904 95.092 142.189 97.9439C142.252 98.5546 141.324 98.6587 141.263 98.0367Z" fill="currentColor"/>
<path d="M135.262 98.6707L134.766 89.6911C134.731 89.0754 135.663 89.0247 135.696 89.6401L136.192 98.6198C136.227 99.2375 135.296 99.291 135.262 98.6707Z" fill="currentColor"/>
<path d="M125.62 98.485C121.425 97.866 122.828 87.5729 126.281 87.1111C129.175 86.6878 132.343 92.968 129.025 97.4895C128.666 97.9877 127.907 97.4378 128.273 96.938C129.915 94.7004 129.897 91.3398 128.231 89.1195C124.598 84.2836 122.077 97.0234 125.756 97.5623C126.226 97.6323 126.74 97.3739 126.888 96.9853C127.108 96.4108 127.979 96.7425 127.758 97.3184C127.452 98.1208 126.531 98.6175 125.62 98.485Z" fill="currentColor"/>
<path d="M116.994 99.9073C116.751 99.9073 116.546 99.718 116.53 99.4723C116.277 95.6368 116.269 91.743 116.506 87.8983C116.543 87.2807 117.473 87.3408 117.436 87.9565C116.797 98.318 118.085 99.835 117.026 99.9064C117.015 99.9073 117.005 99.9073 116.994 99.9073Z" fill="currentColor"/>
<path d="M110.512 120.047H31.7181C30.8973 120.047 30.0874 119.848 29.3758 119.472C29.1857 119.358 13.9915 110.238 14.9481 110.812C14.4153 110.494 14.9046 109.692 15.4267 110.013L29.8435 118.667C30.3895 118.954 31.0492 119.116 31.7181 119.116H110.512C112.763 119.116 114.593 117.285 114.593 115.034V41.458C114.593 39.7011 113.477 38.1293 111.763 37.5579L98.6042 29.5555C98.0747 29.2339 98.568 28.4371 99.0883 28.7602L112.152 36.718C113.944 37.2811 115.525 39.1435 115.525 41.458V115.034C115.525 117.799 113.277 120.047 110.512 120.047Z" fill="currentColor"/>
<path d="M112.688 119.269L98.7534 110.417C98.2355 110.089 98.7306 109.301 99.2538 109.631L113.188 118.482C113.707 118.811 113.21 119.597 112.688 119.269Z" fill="currentColor"/>
<path d="M96.6084 28.5791H17.8324C15.3166 28.5791 13.2852 30.6292 13.2852 33.145V106.721C13.2852 109.237 15.3166 111.269 17.8324 111.269H96.6084C99.1242 111.269 101.174 109.237 101.174 106.721V33.145C101.174 30.6292 99.1242 28.5791 96.6084 28.5791ZM31.7912 65.945C31.7912 61.9382 34.8102 58.6955 38.5189 58.6955C42.2088 58.6955 45.2279 61.9382 45.2279 65.945C45.2279 69.9519 42.2088 73.2132 38.5189 73.2132C34.8102 73.2132 31.7912 69.9519 31.7912 65.945ZM49.8125 71.4055H69.2129C69.8357 71.4055 69.8216 72.3374 69.2129 72.3374H49.8125C49.203 72.3374 49.1901 71.4055 49.8125 71.4055ZM49.8125 65.4791H64.7402C65.3447 65.4791 65.36 66.4109 64.7402 66.4109H49.8125C49.1897 66.4109 49.2038 65.4791 49.8125 65.4791ZM79.4629 60.5032H49.8125C49.1953 60.5032 49.194 59.5714 49.8125 59.5714H79.4629C80.0801 59.5714 80.0814 60.5032 79.4629 60.5032Z" fill="#FF9F43" fill-opacity="0.16"/>
<path d="M100.705 72.0047V33.1405C100.705 30.8865 98.8706 29.0519 96.6166 29.0519H17.8315C17.2147 29.0519 17.2153 28.1201 17.8315 28.1201H96.6166C99.3847 28.1201 101.637 30.3723 101.637 33.1405V72.0047C101.637 72.6216 100.705 72.621 100.705 72.0047Z" fill="currentColor"/>
<path d="M96.617 111.738H17.8319C15.0638 111.738 12.8125 109.486 12.8125 106.718V59.3853C12.8125 58.7684 13.7443 58.769 13.7443 59.3853V106.718C13.7443 108.972 15.5779 110.806 17.8319 110.806H96.617C97.2339 110.806 97.2332 111.738 96.617 111.738Z" fill="currentColor"/>
<path d="M19.2554 44.6935C18.6385 44.6935 18.6392 43.7617 19.2554 43.7617H90.6405C91.0979 43.7617 91.5134 44.5589 90.4823 44.6478C87.9718 44.8645 75.9101 44.5292 19.2554 44.6935Z" fill="currentColor"/>
<path d="M26.3139 40.8066C27.971 40.8066 29.3144 39.4632 29.3144 37.8061C29.3144 36.149 27.971 34.8057 26.3139 34.8057C24.6568 34.8057 23.3135 36.149 23.3135 37.8061C23.3135 39.4632 24.6568 40.8066 26.3139 40.8066Z" fill="#FBD072"/>
<path d="M36.8081 40.8066C38.4652 40.8066 39.8085 39.4632 39.8085 37.8061C39.8085 36.149 38.4652 34.8057 36.8081 34.8057C35.151 34.8057 33.8076 36.149 33.8076 37.8061C33.8076 39.4632 35.151 40.8066 36.8081 40.8066Z" fill="#245fb2"/>
<path d="M47.3012 40.8066C48.9583 40.8066 50.3017 39.4632 50.3017 37.8061C50.3017 36.149 48.9583 34.8057 47.3012 34.8057C45.6441 34.8057 44.3008 36.149 44.3008 37.8061C44.3008 39.4632 45.6441 40.8066 47.3012 40.8066Z" fill="#01B990"/>
<path d="M109.697 92.5196V60.936C109.697 60.3192 110.629 60.3198 110.629 60.936V92.5196C110.629 93.1364 109.697 93.1358 109.697 92.5196Z" fill="currentColor"/>
<path d="M84.2167 53.2539H28.3076C27.5622 53.2539 26.9658 53.8689 26.9658 54.5958V78.5248C26.9658 79.2703 27.5622 79.8667 28.3076 79.8667H84.2167C84.9622 79.8667 85.5586 79.2703 85.5586 78.5248V54.5958C85.5586 53.8689 84.9622 53.2539 84.2167 53.2539ZM38.5204 73.2135C34.8118 73.2135 31.7927 69.9521 31.7927 65.9453C31.7927 61.9385 34.8118 58.6958 38.5204 58.6958C42.2104 58.6958 45.2294 61.9385 45.2294 65.9453C45.2294 69.9521 42.2104 73.2135 38.5204 73.2135ZM69.2144 72.3376H49.814C49.2046 72.3376 49.1916 71.4058 49.814 71.4058H69.2144C69.8372 71.4058 69.8232 72.3376 69.2144 72.3376ZM49.814 65.4794H64.7418C65.3462 65.4794 65.3615 66.4112 64.7418 66.4112H49.814C49.1913 66.4112 49.2053 65.4794 49.814 65.4794ZM79.4644 60.5035H49.814C49.1968 60.5035 49.1955 59.5717 49.814 59.5717H79.4644C80.0816 59.5717 80.0829 60.5035 79.4644 60.5035Z" fill="#245fb2"/>
<path d="M85.0903 54.6039C85.0903 54.1198 84.6963 53.7258 84.2122 53.7258H44.5708C43.9539 53.7258 43.9546 52.7939 44.5708 52.7939H84.2122C85.2105 52.7939 86.0222 53.6056 86.0222 54.6039C86.0222 55.2208 85.0903 55.2201 85.0903 54.6039Z" fill="currentColor"/>
<path d="M65.1216 80.3406H28.3012C27.3029 80.3406 26.4912 79.528 26.4912 78.5298C26.4912 77.9129 27.423 77.9136 27.423 78.5298C27.423 79.0148 27.817 79.4088 28.3012 79.4088H65.1216C65.7385 79.4088 65.7378 80.3406 65.1216 80.3406Z" fill="currentColor"/>
<path d="M73.5372 87.2209H37.5767C36.9598 87.2209 36.9605 86.2891 37.5767 86.2891H73.5372C74.1541 86.2891 74.1534 87.2209 73.5372 87.2209Z" fill="currentColor"/>
<path d="M65.6863 95.8986H44.6021C43.9852 95.8986 43.9858 94.9668 44.6021 94.9668H65.6863C66.3031 94.9668 66.3025 95.8986 65.6863 95.8986Z" fill="currentColor"/>
<path d="M57.6287 105.095H48.8374C48.2205 105.095 48.2212 104.163 48.8374 104.163H57.6287C58.2456 104.163 58.2449 105.095 57.6287 105.095Z" fill="currentColor"/>
<path d="M184.277 175.692C181.225 178.099 176.821 177.551 174.438 174.521L152.953 147.242C150.714 147.079 148.453 146.573 146.294 146.26C144.525 146.007 142.622 145.919 140.893 145.47C139.497 145.108 137.696 145.034 136.964 143.574C136.589 142.826 136.525 141.966 136.467 141.131C135.858 132.36 135.808 132.525 135.994 131.617C136.118 131.008 135.896 129.543 136.288 129.131C136.954 128.432 138.039 130.116 138.474 130.559C139.36 131.463 140.236 132.378 141.102 133.302C142.272 134.55 143.73 136.743 145.654 136.741C148.025 136.738 152.652 133.245 153.535 131.025C154.556 128.459 151.503 126.472 149.939 124.865C148.789 123.684 147.64 122.504 146.49 121.323C146.115 120.956 145.299 120.285 145.573 119.659C145.781 119.184 146.144 119.347 146.496 119.409C147.862 119.65 152.745 119.856 159.599 122.107C161.912 122.866 162.566 123.549 162.873 126.225C163.301 130.041 163.422 133.878 163.283 137.707L185.448 165.853C187.841 168.893 187.317 173.299 184.277 175.692Z" fill="#FBD072"/>
<path d="M152.954 147.709C152.942 147.709 152.93 147.709 152.919 147.708C150.648 147.54 148.421 147.04 146.226 146.722C143.467 146.325 144.472 146.683 139.976 145.742C137.063 145.132 136.226 144.386 136.001 141.164C135.38 132.578 135.354 132.413 135.536 131.525C135.697 130.737 135.168 128.549 136.69 128.499C137.593 128.532 138.396 129.814 138.805 130.232C143.113 134.629 143.891 136.276 145.65 136.276C147.808 136.273 152.281 132.914 153.101 130.854C153.813 129.063 152.113 127.512 150.612 126.144C149.315 124.96 150.006 125.566 146.038 121.537C145.595 121.116 144.769 120.334 145.145 119.473C145.429 118.826 145.923 118.811 146.577 118.951C147.89 119.18 152.936 119.428 159.744 121.665C160.331 121.858 160.034 122.745 159.453 122.549C157.093 121.775 154.609 121.143 152.069 120.672C151.027 120.479 146.155 119.77 146.005 119.799C145.885 120.107 146.421 120.616 146.678 120.86C147.458 121.659 150.458 124.731 150.272 124.54C151.894 126.209 155.121 128.299 153.967 131.198C153.014 133.59 148.231 137.205 145.655 137.207H145.65C143.509 137.207 142.013 134.959 140.762 133.621C138.885 131.618 138.23 131.016 137.796 130.485C137.199 129.757 136.794 129.443 136.651 129.43C136.435 129.686 136.553 131.197 136.449 131.712C136.284 132.519 136.325 132.697 136.931 141.099C137.123 143.854 137.638 144.3 140.167 144.83C141.819 145.174 141.581 145.255 144.609 145.587C148.449 146.014 150.243 146.578 152.986 146.778C153.581 146.822 153.547 147.709 152.954 147.709Z" fill="currentColor"/>
<path d="M174.071 174.809C173.689 174.325 174.423 173.748 174.803 174.234C177.03 177.063 181.137 177.574 183.987 175.327C186.821 173.096 187.311 168.975 185.081 166.143L162.916 137.996C162.537 137.514 163.262 136.934 163.648 137.419L185.812 165.566C188.36 168.803 187.801 173.51 184.564 176.059C181.24 178.678 176.549 177.962 174.071 174.809Z" fill="currentColor"/>
<path d="M156.853 145.382C156.468 144.901 157.197 144.321 157.581 144.801L174.724 166.283C174.885 166.484 174.852 166.777 174.651 166.937C174.086 167.388 174.749 167.695 156.853 145.382Z" fill="currentColor"/>
<path d="M172.763 158.395L164.747 148.569C164.357 148.09 165.079 147.503 165.469 147.979L173.485 157.805C173.874 158.284 173.151 158.872 172.763 158.395Z" fill="currentColor"/>
<path d="M148.995 154.739C149.48 153.133 150.796 151.409 152.347 150.876C156.303 149.515 158.16 156.32 161.593 159.614C163.337 157.663 164.47 154.842 169.239 152.062C176.027 148.105 178.26 153.825 174.244 158.01C175.929 155.895 177.996 153.558 180.384 153.408C182.35 153.285 183.893 154.896 184.059 156.902C184.226 158.908 183.171 161.145 181.596 162.706C183.239 160.877 185.672 158.997 187.534 160.802C188.377 161.62 188.62 162.992 188.436 164.331C188.252 165.671 187.689 166.995 187.077 168.273C188.058 167.058 189.758 166.551 190.906 167.131C192.696 168.034 192.394 170.727 191.324 172.566C188.679 177.113 180.468 184.987 174.38 187.88C165.329 192.182 157.9 187.94 154.191 180.491C153.123 178.347 152.113 176.09 152.245 173.282C152.339 171.284 152.723 169.611 152.016 167.921C150.509 164.321 147.812 158.657 148.995 154.739Z" fill="#FCA8D7"/>
<path d="M171.254 161.247C172.82 159.914 174.018 158.16 174.626 156.309C174.818 155.717 175.703 156.018 175.51 156.6C174.851 158.611 173.553 160.514 171.859 161.957C171.39 162.357 170.785 161.649 171.254 161.247Z" fill="currentColor"/>
<path d="M178.148 165.736C182.009 163.516 182.091 161.303 182.928 161.913C183.137 162.064 183.184 162.356 183.033 162.564C181.872 164.172 180.343 165.548 178.612 166.544C178.08 166.85 177.614 166.044 178.148 165.736Z" fill="currentColor"/>
<path d="M182.751 172.316C184.7 171.168 186.344 169.463 187.38 167.512C187.671 166.966 188.491 167.406 188.203 167.949C187.088 170.05 185.32 171.885 183.224 173.118C182.689 173.432 182.225 172.625 182.751 172.316Z" fill="currentColor"/>
<path d="M171.502 129.653V85.6782C171.502 85.0614 172.434 85.062 172.434 85.6782V129.653C172.434 130.27 171.502 130.269 171.502 129.653Z" fill="currentColor"/>
<path d="M140.799 152.879H86.2661C85.6492 152.879 85.6499 151.947 86.2661 151.947H140.799C141.416 151.947 141.416 152.879 140.799 152.879Z" fill="currentColor"/>
<path d="M61.0049 152.289C57.8659 152.289 55.5829 150.751 54.6961 148.929C53.281 146.024 55.4183 143.005 58.3069 143.414C59.7 143.616 60.9058 144.711 61.2388 146.079C61.3843 146.674 60.4813 146.903 60.3343 146.299C60.0922 145.308 59.1832 144.483 58.174 144.337C54.9449 143.853 53.6532 148.642 57.8018 150.66C59.68 151.573 62.1661 151.576 64.623 150.67C66.8889 149.831 68.9026 148.382 70.85 146.982C71.3503 146.621 71.8954 147.379 71.3942 147.739C68.2407 150.006 64.9669 152.289 61.0049 152.289Z" fill="currentColor"/>
<path d="M65.6427 158.922C65.0584 158.922 65.0122 158.051 65.5963 157.993C67.5664 157.791 69.4673 157.085 71.0934 155.954C71.5949 155.601 72.1338 156.367 71.6249 156.719C69.8704 157.941 67.8184 158.701 65.6909 158.919C65.6745 158.921 65.6591 158.922 65.6427 158.922Z" fill="currentColor"/>
<path d="M72.4538 164.104C72.2869 159.533 75.3554 155.765 79.4133 155.07C80.0054 154.957 80.1888 155.883 79.5698 155.989C73.4887 157.028 71.5342 164.979 75.3075 168.854C76.5496 170.129 78.3896 170.762 79.9938 170.449C81.7001 170.124 83.1078 168.722 83.3417 167.116C83.7439 164.355 80.6762 162.285 78.8682 163.757C77.5794 164.811 78.5157 166.782 79.8109 166.237C80.3795 165.997 80.7431 166.852 80.1767 167.094C78.0798 167.992 76.0208 164.881 78.2785 163.036C80.7259 161.036 84.7918 163.615 84.2644 167.25C83.9741 169.237 82.2515 170.968 80.1686 171.364C76.4473 172.076 72.6322 168.969 72.4538 164.104Z" fill="currentColor"/>
<path d="M182.378 101.58L171.798 97.046C171.234 96.8031 171.594 95.9479 172.165 96.1888L182.746 100.722C183.312 100.966 182.946 101.82 182.378 101.58Z" fill="currentColor"/>
<path d="M180.466 115.846L171.908 112.765C171.329 112.556 171.641 111.682 172.223 111.887L180.781 114.969C181.359 115.177 181.051 116.051 180.466 115.846Z" fill="currentColor"/>
<path d="M179.769 131.502L172.152 128.506C171.573 128.281 171.926 127.41 172.492 127.64L180.109 130.636C180.687 130.861 180.334 131.734 179.769 131.502Z" fill="currentColor"/>
<path d="M148.205 181.811C142.813 180.263 140.094 174.141 142.682 169.079C142.961 168.531 143.793 168.953 143.512 169.503C141.212 174.001 143.592 179.518 148.462 180.916C149.058 181.087 148.792 181.986 148.205 181.811Z" fill="currentColor"/>
<path d="M136.627 178.844C134.608 177.045 133.968 173.957 135.106 171.504C135.364 170.942 136.21 171.337 135.951 171.895C134.997 173.953 135.554 176.641 137.248 178.148C137.706 178.557 137.09 179.254 136.627 178.844Z" fill="currentColor"/>
<path d="M31.951 24.7956L27.5913 20.0273C27.3016 19.7128 27.5671 19.2062 27.9553 19.2475C30.7171 19.3685 33.4943 19.9809 36.0641 21.0301C34.8047 18.1346 34.4243 14.896 34.9958 11.7802C35.07 11.3749 35.5948 11.2604 35.833 11.5927L42.5513 20.9655C42.7529 21.2452 42.716 21.2016 42.9099 21.0147L48.5836 15.5402C48.9304 15.2078 49.4891 15.551 49.3543 16.0061L47.9311 20.8764C49.3707 19.8235 50.9232 18.9335 52.5638 18.2238C52.9514 18.0533 53.3541 18.4592 53.1699 18.8498L50.5501 24.4171C50.2891 24.9738 49.4436 24.5785 49.7074 24.0203L51.7794 19.6169C50.2079 20.4023 48.731 21.3659 47.3761 22.4897C47.0242 22.7826 46.5016 22.4392 46.6317 22.0002L47.9675 17.4294L43.5569 21.6853C42.9096 22.3069 42.318 22.2383 41.7942 21.5079L35.7502 13.076C35.4371 16.0553 36.025 19.0946 37.4445 21.7454C37.6558 22.1376 37.2444 22.5784 36.8349 22.3869C34.4089 21.2403 31.7444 20.5124 29.0646 20.2585L32.6389 24.1677C33.0551 24.621 32.3663 25.252 31.951 24.7956Z" fill="currentColor"/>
</svg>
