<svg width="13" height="10" viewBox="0 0 13 10" fill="none" xmlns="http://www.w3.org/2000/svg">
<path fill-rule="evenodd" clip-rule="evenodd" d="M5.81407 6.3125C4.94624 6.3125 4.22238 6.90217 4.02148 7.69435L5.89866 9.53981L7.63594 7.83181C7.48954 6.97049 6.73232 6.3125 5.81407 6.3125Z" fill="currentColor"/>
<path fill-rule="evenodd" clip-rule="evenodd" d="M5.81308 3.70312C4.22302 3.70312 2.82815 4.51402 2.02539 5.73564L3.18358 6.87268C3.661 5.91376 4.65327 5.24846 5.81308 5.24846C7.01682 5.24846 8.04975 5.96175 8.50359 6.98086L9.66503 5.83894C8.87447 4.56038 7.44707 3.70312 5.81308 3.70312Z" fill="currentColor"/>
<path opacity="0.5" fill-rule="evenodd" clip-rule="evenodd" d="M5.81339 0.945312C3.45066 0.945312 1.3547 2.05145 0.0175781 3.76107L1.18227 4.90543C2.21195 3.4821 3.90043 2.55002 5.81339 2.55002C7.76946 2.55002 9.49454 3.52195 10.5169 5.00059L11.6824 3.85623C10.3485 2.09293 8.22005 0.945312 5.81339 0.945312Z" fill="currentColor"/>
</svg>
